<svg width="33" height="34" viewBox="0 0 33 34" fill="none" xmlns="http://www.w3.org/2000/svg">
<rect width="33" height="34" fill="white"/>
<path fill-rule="evenodd" clip-rule="evenodd" d="M19.7998 5.6665C20.1036 5.6665 20.3498 5.92021 20.3498 6.23317V10.7665C20.3498 11.0795 20.1036 11.3332 19.7998 11.3332C19.496 11.3332 19.2498 11.0795 19.2498 10.7665V9.0665H14.8498C14.546 9.0665 14.2998 8.8128 14.2998 8.49984C14.2998 8.18688 14.546 7.93317 14.8498 7.93317H19.2498V6.23317C19.2498 5.92021 19.496 5.6665 19.7998 5.6665ZM6.0498 15.2998C6.0498 14.9869 6.29605 14.7332 6.5998 14.7332H26.3998C26.7036 14.7332 26.9498 14.9869 26.9498 15.2998V25.4998C26.9498 27.0647 25.7186 28.3332 24.1998 28.3332H8.7998C7.28103 28.3332 6.0498 27.0647 6.0498 25.4998V15.2998ZM7.1498 15.8665V25.4998C7.1498 26.4388 7.88853 27.1998 8.7998 27.1998H24.1998C25.1111 27.1998 25.8498 26.4388 25.8498 25.4998V15.8665H7.1498Z" fill="current"/>
<path fill-rule="evenodd" clip-rule="evenodd" d="M8.7998 9.06644C7.88853 9.06644 7.1498 9.82755 7.1498 10.7664V15.2998C7.1498 15.6127 6.90356 15.8664 6.5998 15.8664C6.29605 15.8664 6.0498 15.6127 6.0498 15.2998V10.7664C6.0498 9.20163 7.28102 7.93311 8.7998 7.93311H10.9998C11.3036 7.93311 11.5498 8.18681 11.5498 8.49977C11.5498 8.81273 11.3036 9.06644 10.9998 9.06644H8.7998Z" fill="current"/>
<path fill-rule="evenodd" clip-rule="evenodd" d="M11.0002 5.6665C11.304 5.6665 11.5502 5.92021 11.5502 6.23317V10.7665C11.5502 11.0795 11.304 11.3332 11.0002 11.3332C10.6964 11.3332 10.4502 11.0795 10.4502 10.7665V6.23317C10.4502 5.92021 10.6964 5.6665 11.0002 5.6665Z" fill="current"/>
<path fill-rule="evenodd" clip-rule="evenodd" d="M23.0996 8.49977C23.0996 8.18681 23.3459 7.93311 23.6496 7.93311H24.1996C25.7184 7.93311 26.9496 9.20164 26.9496 10.7664V15.2998C26.9496 15.6127 26.7034 15.8664 26.3996 15.8664C26.0959 15.8664 25.8496 15.6127 25.8496 15.2998V10.7664C25.8496 9.82755 25.1109 9.06644 24.1996 9.06644H23.6496C23.3459 9.06644 23.0996 8.81273 23.0996 8.49977Z" fill="current"/>
</svg>
