<svg width="25" height="24" viewBox="0 0 25 24" fill="none" xmlns="http://www.w3.org/2000/svg">
<path fill-rule="evenodd" clip-rule="evenodd" d="M9.24447 3.75L6.97884 6.65L6.35384 6.2L6.97884 6.65C6.43785 7.34246 5.58882 7.75 4.68717 7.75H4.16634C3.44722 7.75 2.86426 8.30964 2.86426 9V19C2.86426 19.6904 3.44721 20.25 4.16634 20.25H20.833C21.5522 20.25 22.1351 19.6904 22.1351 19V9C22.1351 8.30964 21.5522 7.75 20.833 7.75H20.3122C19.4106 7.75 18.5615 7.34247 18.0205 6.65L15.7549 3.75H9.24447ZM5.72884 5.75C5.72884 5.75 5.72884 5.75 5.72884 5.75L8.04134 2.79C8.30692 2.45007 8.72372 2.25 9.16634 2.25H15.833C16.2757 2.25 16.6924 2.45007 16.958 2.79C16.958 2.79001 16.958 2.79002 16.958 2.79003L19.2705 5.75L18.6455 6.2L19.2705 5.75001C19.5164 6.06475 19.9023 6.25 20.3122 6.25H20.833C22.4151 6.25 23.6976 7.48122 23.6976 9V19C23.6976 20.5188 22.4151 21.75 20.833 21.75H4.16634C2.58428 21.75 1.30176 20.5188 1.30176 19V9C1.30176 7.48122 2.58428 6.25 4.16634 6.25H4.68717C5.09701 6.25 5.48293 6.06476 5.72884 5.75Z" fill="black"/>
<path fill-rule="evenodd" clip-rule="evenodd" d="M7.55176 13C7.55176 10.3767 9.76701 8.25 12.4997 8.25C15.2323 8.25 17.4476 10.3767 17.4476 13C17.4476 15.6233 15.2323 17.75 12.4997 17.75C9.76701 17.75 7.55176 15.6233 7.55176 13ZM12.4997 9.75C10.63 9.75 9.11426 11.2051 9.11426 13C9.11426 14.7949 10.63 16.25 12.4997 16.25C14.3693 16.25 15.8851 14.7949 15.8851 13C15.8851 11.2051 14.3693 9.75 12.4997 9.75Z" fill="black"/>
</svg>
