<svg xmlns="http://www.w3.org/2000/svg" width="20" height="20" viewBox="0 0 20 20" fill="none">
  <g clip-path="url(#clip0_1355_1015)">
    <path d="M6.85674 1.6011C6.53232 1.2701 6.00014 1.26743 5.67241 1.59516C5.3493 1.91828 5.34668 2.44134 5.66654 2.76768L13.3212 10.5774C13.6456 10.9084 14.1778 10.9111 14.5055 10.5833C14.8286 10.2602 14.8313 9.73717 14.5114 9.41083L6.85674 1.6011Z" fill="#B6B9BA"/>
    <path d="M13.3211 9.41227C13.6464 9.08612 14.1746 9.08577 14.5004 9.41151C14.8255 9.73665 14.8259 10.2637 14.5011 10.5893L6.85666 18.2536C6.53134 18.5797 6.00312 18.5801 5.67738 18.2544C5.35224 17.9292 5.3519 17.4022 5.67662 17.0766L13.3211 9.41227Z" fill="#B6B9BA"/>
  </g>
  <defs>
    <clipPath id="clip0_1355_1015">
      <rect width="20" height="20" fill="white"/>
    </clipPath>
  </defs>
</svg>