<svg xmlns="http://www.w3.org/2000/svg" width="20" height="20" viewBox="0 0 20 20" fill="none">
  <g clip-path="url(#clip0_1355_1038)">
    <path d="M13.1433 1.6011C13.4677 1.2701 13.9999 1.26743 14.3276 1.59516C14.6507 1.91828 14.6533 2.44134 14.3335 2.76768L6.67881 10.5774C6.35438 10.9084 5.82221 10.9111 5.49448 10.5833C5.17136 10.2602 5.16874 9.73717 5.4886 9.41083L13.1433 1.6011Z" fill="#B6B9BA"/>
    <path d="M6.6789 9.41227C6.35359 9.08612 5.82536 9.08577 5.49962 9.41151C5.17449 9.73665 5.17414 10.2637 5.49886 10.5893L13.1433 18.2536C13.4687 18.5797 13.9969 18.5801 14.3226 18.2544C14.6478 17.9292 14.6481 17.4022 14.3234 17.0766L6.6789 9.41227Z" fill="#B6B9BA"/>
  </g>
  <defs>
    <clipPath id="clip0_1355_1038">
      <rect width="20" height="20" fill="white" transform="matrix(-1 0 0 1 20 0)"/>
    </clipPath>
  </defs>
</svg>