<svg width="32" height="32" viewBox="0 0 32 32" fill="none" xmlns="http://www.w3.org/2000/svg">
<g id="Group 1000016261">
<g id="Group 1000016259">
<path id="Ellipse 2624 (Stroke)" fill-rule="evenodd" clip-rule="evenodd" d="M32 16C32 24.8366 24.8366 32 16 32C7.16344 32 0 24.8366 0 16C0 7.16344 7.16344 0 16 0C24.8366 0 32 7.16344 32 16ZM16 29.0331C23.198 29.0331 29.0331 23.198 29.0331 16C29.0331 8.80201 23.198 2.96689 16 2.96689C8.80201 2.96689 2.96689 8.80201 2.96689 16C2.96689 23.198 8.80201 29.0331 16 29.0331Z" fill="#E9E9E9"/>
</g>
<path id="Vector 3450 (Stroke)" fill-rule="evenodd" clip-rule="evenodd" d="M8.70283 8.70259C9.32353 8.08189 10.3299 8.08189 10.9506 8.70259L15.7063 13.4583L20.462 8.70259C21.0827 8.08189 22.0891 8.08189 22.7098 8.70259C23.3305 9.32329 23.3305 10.3296 22.7098 10.9503L17.9541 15.7061L22.7098 20.4618C23.3305 21.0825 23.3305 22.0888 22.7098 22.7095C22.0891 23.3302 21.0827 23.3302 20.462 22.7095L15.7063 17.9538L10.9506 22.7095C10.3299 23.3302 9.32353 23.3302 8.70283 22.7095C8.08213 22.0888 8.08213 21.0825 8.70283 20.4618L13.4586 15.7061L8.70283 10.9503C8.08213 10.3296 8.08213 9.32329 8.70283 8.70259Z" fill="#E9E9E9"/>
</g>
</svg>
