<svg width="22" height="28" viewBox="0 0 22 28" fill="none" xmlns="http://www.w3.org/2000/svg">
<path d="M16 9.5C16.5523 9.5 17 9.94772 17 10.5V23.5C17 24.0523 16.5523 24.5 16 24.5H6C5.44771 24.5 5 24.0523 5 23.5V10.5C5 9.94771 5.44772 9.5 6 9.5H16ZM15.0429 0.792893C14.8554 0.605357 14.601 0.5 14.3358 0.5H7.66421C7.399 0.5 7.14464 0.605357 6.95711 0.792893L6.04289 1.70711C5.85536 1.89464 5.601 2 5.33579 2H1.5C0.947715 2 0.5 2.44772 0.5 3V4C0.5 4.55228 0.947715 5 1.5 5H20.5C21.0523 5 21.5 4.55228 21.5 4V3C21.5 2.44772 21.0523 2 20.5 2H16.6642C16.399 2 16.1446 1.89464 15.9571 1.70711L15.0429 0.792893ZM20 7.5C20 6.94772 19.5523 6.5 19 6.5H3C2.44772 6.5 2 6.94772 2 7.5V24.5C2 26.15 3.35 27.5 5 27.5H17C18.65 27.5 20 26.15 20 24.5V7.5Z" fill="white"/>
</svg>
