<svg width="33" height="34" viewBox="0 0 33 34" fill="none" xmlns="http://www.w3.org/2000/svg">
<g id="Frame 35">
<rect width="33" height="34" fill="white"/>
<path id="Vector (Stroke)" fill-rule="evenodd" clip-rule="evenodd" d="M9.90039 7.36673C8.98912 7.36673 8.25039 8.12785 8.25039 9.06673V24.9334C8.25039 25.2464 8.00415 25.5001 7.70039 25.5001C7.39663 25.5001 7.15039 25.2464 7.15039 24.9334V9.06673C7.15039 7.50192 8.38161 6.2334 9.90039 6.2334H24.6404C25.3087 6.2334 25.8504 6.79157 25.8504 7.48006V22.3429C25.8504 22.6559 25.6041 22.9096 25.3004 22.9096C24.9966 22.9096 24.7504 22.6559 24.7504 22.3429V7.48006C24.7504 7.41746 24.7012 7.36673 24.6404 7.36673H9.90039Z" fill="current"/>
<path id="Vector (Stroke)_2" fill-rule="evenodd" clip-rule="evenodd" d="M14.294 10.7189C14.726 10.1007 15.4411 9.6333 16.5004 9.6333C17.5596 9.6333 18.2748 10.1007 18.7067 10.7189C19.1185 11.3081 19.2504 11.9982 19.2504 12.4666V14.1717C19.8671 14.229 20.3504 14.763 20.3504 15.4133V18.5866C20.3504 19.2752 19.8087 19.8333 19.1404 19.8333H13.8604C13.1921 19.8333 12.6504 19.2752 12.6504 18.5866V15.4133C12.6504 14.7629 13.1337 14.229 13.7504 14.1717V12.4666C13.7504 11.9982 13.8823 11.3081 14.294 10.7189ZM14.8504 14.1666H18.1504V12.4666C18.1504 12.1795 18.0623 11.7363 17.814 11.3811C17.586 11.0548 17.2011 10.7666 16.5004 10.7666C15.7996 10.7666 15.4148 11.0548 15.1867 11.3811C14.9385 11.7363 14.8504 12.1795 14.8504 12.4666V14.1666ZM13.8604 15.3C13.7996 15.3 13.7504 15.3507 13.7504 15.4133V18.5866C13.7504 18.6492 13.7996 18.7 13.8604 18.7H19.1404C19.2012 18.7 19.2504 18.6493 19.2504 18.5866V15.4133C19.2504 15.3507 19.2012 15.3 19.1404 15.3H13.8604Z" fill="current"/>
<path id="Vector (Stroke)_3" fill-rule="evenodd" clip-rule="evenodd" d="M9.34961 22.6668C9.34961 22.3538 9.59585 22.1001 9.89961 22.1001H25.2996C25.6034 22.1001 25.8496 22.3538 25.8496 22.6668C25.8496 22.9797 25.6034 23.2334 25.2996 23.2334H9.89961C9.59585 23.2334 9.34961 22.9797 9.34961 22.6668Z" fill="current"/>
<path id="Vector (Stroke)_4" fill-rule="evenodd" clip-rule="evenodd" d="M9.34961 27.2C9.34961 26.887 9.59585 26.6333 9.89961 26.6333H25.2996C25.6034 26.6333 25.8496 26.887 25.8496 27.2C25.8496 27.5129 25.6034 27.7666 25.2996 27.7666H9.89961C9.59585 27.7666 9.34961 27.5129 9.34961 27.2Z" fill="current"/>
<path id="Vector (Stroke)_5" fill-rule="evenodd" clip-rule="evenodd" d="M9.90039 23.2334C8.98911 23.2334 8.25039 23.9945 8.25039 24.9334C8.25039 25.8723 8.98911 26.6334 9.90039 26.6334C10.2041 26.6334 10.4504 26.8871 10.4504 27.2001C10.4504 27.5131 10.2041 27.7668 9.90039 27.7668C8.38161 27.7668 7.15039 26.4983 7.15039 24.9334C7.15039 23.3686 8.38161 22.1001 9.90039 22.1001C10.2041 22.1001 10.4504 22.3538 10.4504 22.6668C10.4504 22.9797 10.2041 23.2334 9.90039 23.2334Z" fill="current"/>
</g>
</svg>
