<svg width="33" height="34" viewBox="0 0 33 34" fill="none" xmlns="http://www.w3.org/2000/svg">
<rect width="33" height="34" fill="white"/>
<path fill-rule="evenodd" clip-rule="evenodd" d="M4.9502 17.0001C4.9502 10.4279 10.1213 5.1001 16.5002 5.1001C22.879 5.1001 28.0502 10.4279 28.0502 17.0001C28.0502 23.5722 22.879 28.9001 16.5002 28.9001C10.1213 28.9001 4.9502 23.5722 4.9502 17.0001ZM16.5002 6.23343C10.7288 6.23343 6.0502 11.0538 6.0502 17.0001C6.0502 22.9463 10.7288 27.7668 16.5002 27.7668C22.2715 27.7668 26.9502 22.9463 26.9502 17.0001C26.9502 11.0538 22.2715 6.23343 16.5002 6.23343Z" fill="current"/>
<path fill-rule="evenodd" clip-rule="evenodd" d="M12.3043 9.27777C11.1694 11.2266 10.4496 13.9555 10.4496 17.0001C10.4496 20.0446 11.1694 22.7735 12.3043 24.7224C13.4458 26.6826 14.9462 27.7668 16.4996 27.7668C16.8034 27.7668 17.0496 28.0205 17.0496 28.3334C17.0496 28.6464 16.8034 28.9001 16.4996 28.9001C14.408 28.9001 12.6083 27.4472 11.3611 25.3055C10.1073 23.1525 9.34961 20.2147 9.34961 17.0001C9.34961 13.7854 10.1073 10.8477 11.3611 8.69467C12.6083 6.55295 14.408 5.1001 16.4996 5.1001C16.8034 5.1001 17.0496 5.3538 17.0496 5.66676C17.0496 5.97973 16.8034 6.23343 16.4996 6.23343C14.9462 6.23343 13.4458 7.31763 12.3043 9.27777Z" fill="current"/>
</svg>
