<svg width="33" height="33" viewBox="0 0 33 33" fill="none" xmlns="http://www.w3.org/2000/svg">
<path d="M16.7 9.6501C17.2799 9.6501 17.75 9.18 17.75 8.6001C17.75 8.0202 17.2799 7.5501 16.7 7.5501V9.6501ZM16.7 7.5501C11.8675 7.5501 7.95 11.4676 7.95 16.3001H10.05C10.05 12.6274 13.0273 9.6501 16.7 9.6501V7.5501ZM7.95 16.3001C7.95 21.1326 11.8675 25.0501 16.7 25.0501V22.9501C13.0273 22.9501 10.05 19.9728 10.05 16.3001H7.95ZM16.7 25.0501C21.5325 25.0501 25.45 21.1326 25.45 16.3001H23.35C23.35 19.9728 20.3727 22.9501 16.7 22.9501V25.0501ZM24.4 16.3001C25.45 16.3001 25.45 16.2998 25.45 16.2994C25.45 16.2993 25.45 16.2989 25.45 16.2987C25.45 16.2982 25.45 16.2976 25.45 16.297C25.45 16.2958 25.45 16.2944 25.45 16.2929C25.45 16.2898 25.4499 16.286 25.4499 16.2815C25.4498 16.2726 25.4496 16.261 25.4494 16.2468C25.4488 16.2184 25.4477 16.1797 25.4456 16.1315C25.4415 16.0353 25.4335 15.9011 25.418 15.7366C25.3871 15.4088 25.3256 14.9545 25.2027 14.4381C24.9608 13.4224 24.4591 12.0743 23.3925 11.0076L21.9075 12.4926C22.5909 13.1759 22.9642 14.1028 23.1598 14.9245C23.2556 15.3269 23.3035 15.682 23.3273 15.9339C23.3391 16.0592 23.3448 16.1574 23.3475 16.2212C23.3489 16.253 23.3495 16.2762 23.3498 16.2896C23.3499 16.2964 23.35 16.3007 23.35 16.3025C23.35 16.3034 23.35 16.3036 23.35 16.3032C23.35 16.303 23.35 16.3027 23.35 16.3022C23.35 16.3019 23.35 16.3016 23.35 16.3013C23.35 16.3011 23.35 16.3008 23.35 16.3007C23.35 16.3004 23.35 16.3001 24.4 16.3001Z" fill="#606060"/>
<path d="M20.8312 14.8178L22.3549 10.6316L26.541 12.1553" stroke="#606060" stroke-width="2.1" stroke-linecap="round" stroke-linejoin="round"/>
<circle cx="16.7004" cy="16.3" r="14.7" stroke="#E9E9E9" stroke-width="2.8"/>
</svg>
